<?xml version="1.0" encoding="UTF-8" standalone="no"?>
<!-- Created with Inkscape (http://www.inkscape.org/) -->

<svg
   xmlns:dc="http://purl.org/dc/elements/1.1/"
   xmlns:cc="http://creativecommons.org/ns#"
   xmlns:rdf="http://www.w3.org/1999/02/22-rdf-syntax-ns#"
   xmlns:svg="http://www.w3.org/2000/svg"
   xmlns="http://www.w3.org/2000/svg"
   xmlns:sodipodi="http://sodipodi.sourceforge.net/DTD/sodipodi-0.dtd"
   xmlns:inkscape="http://www.inkscape.org/namespaces/inkscape"
   width="96.846642"
   height="45.550266"
   viewBox="0 0 25.624005 12.051841"
   version="1.1"
   id="svg8"
   inkscape:version="0.92.4 (5da689c313, 2019-01-14)"
   sodipodi:docname="logo.svg">
  <defs
     id="defs2" />
  <sodipodi:namedview
     id="base"
     pagecolor="#ffffff"
     bordercolor="#666666"
     borderopacity="1.0"
     inkscape:pageopacity="0.0"
     inkscape:pageshadow="2"
     inkscape:zoom="5.6"
     inkscape:cx="40.654857"
     inkscape:cy="-1.0718404"
     inkscape:document-units="px"
     inkscape:current-layer="layer1"
     showgrid="false"
     fit-margin-top="0"
     fit-margin-left="0"
     fit-margin-right="0"
     fit-margin-bottom="0"
     units="px"
     inkscape:window-width="1920"
     inkscape:window-height="1051"
     inkscape:window-x="-9"
     inkscape:window-y="-9"
     inkscape:window-maximized="1" />
  <metadata
     id="metadata5">
    <rdf:RDF>
      <cc:Work
         rdf:about="">
        <dc:format>image/svg+xml</dc:format>
        <dc:type
           rdf:resource="http://purl.org/dc/dcmitype/StillImage" />
        <dc:title></dc:title>
      </cc:Work>
    </rdf:RDF>
  </metadata>
  <g
     inkscape:label="Capa 1"
     inkscape:groupmode="layer"
     id="layer1"
     transform="translate(-34.092267,-85.537734)">
    <g
       id="g827"
       transform="matrix(0.93650687,0,0,0.93650687,2.1646246,6.1962672)"
       style="stroke-width:1.06779778;fill:#fafafa;fill-opacity:1">
      <g
         aria-label="miBlog"
         style="font-style:normal;font-variant:normal;font-weight:normal;font-stretch:normal;font-size:9.19165516px;line-height:1.25;font-family:Pacifico;-inkscape-font-specification:'Pacifico, Normal';font-variant-ligatures:normal;font-variant-caps:normal;font-variant-numeric:normal;font-feature-settings:normal;text-align:end;letter-spacing:0px;word-spacing:0px;writing-mode:lr-tb;text-anchor:end;fill:#fafafa;fill-opacity:1;stroke:none;stroke-width:0.28252149"
         id="text817">
        <path
           d="m 34.726491,93.40676 q -0.349282,0 -0.496349,-0.367666 -0.137875,-0.367666 -0.137875,-1.176532 0,-1.194915 0.340092,-2.270339 0.08272,-0.266558 0.266558,-0.386049 0.193024,-0.128684 0.533116,-0.128684 0.183833,0 0.257366,0.04596 0.07353,0.04596 0.07353,0.174641 0,0.147067 -0.137875,0.661799 -0.09192,0.367666 -0.147066,0.643416 -0.05515,0.266558 -0.09192,0.670991 0.248175,-0.716949 0.588266,-1.213299 0.349283,-0.496349 0.707758,-0.735332 0.367666,-0.248175 0.689374,-0.248175 0.321708,0 0.450391,0.147067 0.137875,0.147066 0.137875,0.450391 0,0.294133 -0.174642,1.066232 -0.07353,0.3309 -0.101108,0.496349 0.459583,-1.130573 1.020274,-1.645306 0.560691,-0.514733 1.047848,-0.514733 0.597458,0 0.597458,0.597458 0,0.358475 -0.202216,1.296023 -0.174642,0.799674 -0.174642,1.057041 0,0.367666 0.266558,0.367666 0.183833,0 0.432008,-0.2206 0.257366,-0.229791 0.680182,-0.735332 0.1103,-0.128683 0.248175,-0.128683 0.119492,0 0.183833,0.110299 0.07353,0.1103 0.07353,0.303325 0,0.367666 -0.174641,0.569883 -0.395241,0.487157 -0.854824,0.799674 -0.450391,0.312516 -1.029465,0.312516 -0.468775,0 -0.707758,-0.266558 -0.238983,-0.27575 -0.238983,-0.790482 0,-0.257367 0.128683,-0.919166 0.119492,-0.579074 0.119492,-0.799674 0,-0.147066 -0.101108,-0.147066 -0.119492,0 -0.340092,0.312516 -0.220599,0.303325 -0.441199,0.808866 -0.2206,0.505541 -0.358475,1.066232 -0.101108,0.441199 -0.238983,0.588265 -0.128683,0.147067 -0.422816,0.147067 -0.303324,0 -0.459582,-0.284941 -0.147067,-0.294133 -0.147067,-0.707758 0,-0.349283 0.09192,-1.011082 0.07353,-0.588266 0.07353,-0.772099 0,-0.147066 -0.101108,-0.147066 -0.137875,0 -0.349283,0.330899 -0.211408,0.3309 -0.413625,0.845632 -0.193024,0.514733 -0.312516,1.011083 -0.101108,0.432007 -0.238983,0.588265 -0.128683,0.147067 -0.413625,0.147067 z"
           style="font-style:normal;font-variant:normal;font-weight:normal;font-stretch:normal;font-size:9.19165516px;font-family:Pacifico;-inkscape-font-specification:'Pacifico, Normal';font-variant-ligatures:normal;font-variant-caps:normal;font-variant-numeric:normal;font-feature-settings:normal;text-align:end;writing-mode:lr-tb;text-anchor:end;stroke-width:0.28252149;fill:#fafafa;fill-opacity:1"
           id="path829" />
        <path
           d="m 42.117875,88.470841 q -0.38605,0 -0.579075,-0.174641 -0.193024,-0.183833 -0.193024,-0.505541 0,-0.321708 0.248174,-0.533116 0.257367,-0.2206 0.634224,-0.2206 0.340092,0 0.5515,0.16545 0.211408,0.16545 0.211408,0.468774 0,0.367666 -0.238983,0.588266 -0.238983,0.211408 -0.634224,0.211408 z m -0.07353,4.935919 q -0.597457,0 -0.873207,-0.422816 -0.266558,-0.422816 -0.266558,-1.121382 0,-0.413625 0.101108,-1.05704 0.1103,-0.652608 0.27575,-1.213299 0.08273,-0.294133 0.2206,-0.404433 0.137875,-0.1103 0.441199,-0.1103 0.468775,0 0.468775,0.312517 0,0.229791 -0.174642,1.066232 -0.2206,1.011082 -0.2206,1.369556 0,0.27575 0.07353,0.422816 0.07353,0.147067 0.248174,0.147067 0.16545,0 0.413625,-0.229791 0.248174,-0.229792 0.661799,-0.726141 0.1103,-0.128683 0.248175,-0.128683 0.119491,0 0.183833,0.110299 0.07353,0.1103 0.07353,0.303325 0,0.367666 -0.174641,0.569883 -0.909974,1.11219 -1.700457,1.11219 z"
           style="font-style:normal;font-variant:normal;font-weight:normal;font-stretch:normal;font-size:9.19165516px;font-family:Pacifico;-inkscape-font-specification:'Pacifico, Normal';font-variant-ligatures:normal;font-variant-caps:normal;font-variant-numeric:normal;font-feature-settings:normal;text-align:end;writing-mode:lr-tb;text-anchor:end;stroke-width:0.28252149;fill:#fafafa;fill-opacity:1"
           id="path831" />
        <path
           d="m 50.712934,87.478142 q 0,0.781291 -0.5515,1.351174 -0.551499,0.560691 -1.608539,0.808865 0.569882,0.156258 0.864015,0.514733 0.294133,0.349283 0.294133,0.808866 0,0.72614 -0.459583,1.259256 -0.450391,0.533116 -1.323598,0.827249 -0.873207,0.284942 -2.104889,0.284942 -0.459583,0 -0.735332,-0.02757 -0.0092,0.257366 -0.2206,0.386049 -0.211408,0.128683 -0.542308,0.128683 -0.330899,0 -0.459582,-0.147066 -0.119492,-0.147067 -0.101109,-0.432008 0.08272,-1.286832 0.321708,-2.693155 0.238983,-1.415515 0.60665,-2.729921 0.06434,-0.229792 0.257366,-0.321708 0.193025,-0.09192 0.505541,-0.09192 0.560691,0 0.560691,0.312516 0,0.128684 -0.05515,0.294133 -0.238983,0.716949 -0.477966,1.948631 -0.238983,1.22249 -0.340091,2.334681 0.441199,0.03677 0.716949,0.03677 1.286831,0 1.884289,-0.367666 0.606649,-0.376858 0.606649,-0.955932 0,-0.404433 -0.349283,-0.680183 -0.340091,-0.275749 -1.148957,-0.303324 -0.183833,-0.0092 -0.257366,-0.09192 -0.07353,-0.08273 -0.07353,-0.266558 0,-0.266558 0.1103,-0.432007 0.1103,-0.16545 0.404433,-0.174642 0.652607,-0.01838 1.176531,-0.193025 0.533116,-0.174641 0.836441,-0.487157 0.303325,-0.321708 0.303325,-0.744524 0,-0.533116 -0.523925,-0.836441 -0.523924,-0.312516 -1.608539,-0.312516 -0.983507,0 -1.902673,0.257366 -0.919165,0.248175 -1.562581,0.634224 -0.294133,0.174642 -0.49635,0.174642 -0.165449,0 -0.257366,-0.1103 -0.08272,-0.119492 -0.08272,-0.294133 0,-0.229792 0.09192,-0.395241 0.101108,-0.16545 0.468774,-0.376858 0.772099,-0.4412 1.810756,-0.689374 1.038657,-0.248175 2.123272,-0.248175 1.66369,0 2.481747,0.560691 0.818058,0.560691 0.818058,1.479856 z"
           style="font-style:normal;font-variant:normal;font-weight:normal;font-stretch:normal;font-size:9.19165516px;font-family:Pacifico;-inkscape-font-specification:'Pacifico, Normal';font-variant-ligatures:normal;font-variant-caps:normal;font-variant-numeric:normal;font-feature-settings:normal;text-align:end;writing-mode:lr-tb;text-anchor:end;stroke-width:0.28252149;fill:#fafafa;fill-opacity:1"
           id="path833" />
        <path
           d="m 54.253301,91.311063 q 0.119492,0 0.183833,0.110299 0.07353,0.1103 0.07353,0.303325 0,0.367666 -0.174641,0.569883 -0.395241,0.487157 -0.864016,0.799674 -0.459582,0.312516 -1.047848,0.312516 -0.808866,0 -1.204107,-0.735332 -0.38605,-0.735333 -0.38605,-1.902673 0,-1.121382 0.284942,-2.55528 0.294133,-1.433898 0.854824,-2.463364 0.569882,-1.029465 1.351173,-1.029465 0.441199,0 0.689374,0.413624 0.257366,0.404433 0.257366,1.167341 0,1.093806 -0.606649,2.536896 -0.606649,1.44309 -1.645306,2.858605 0.06434,0.376858 0.211408,0.542308 0.147066,0.156258 0.386049,0.156258 0.376858,0 0.6618,-0.211408 0.284941,-0.2206 0.72614,-0.744524 0.1103,-0.128683 0.248175,-0.128683 z M 53.122727,85.63062 q -0.211408,0 -0.477966,0.762907 -0.266558,0.762907 -0.468774,1.893481 -0.202216,1.130574 -0.2206,2.169231 0.652608,-1.075424 1.038657,-2.150848 0.38605,-1.084615 0.38605,-1.976205 0,-0.698566 -0.257367,-0.698566 z"
           style="font-style:normal;font-variant:normal;font-weight:normal;font-stretch:normal;font-size:9.19165516px;font-family:Pacifico;-inkscape-font-specification:'Pacifico, Normal';font-variant-ligatures:normal;font-variant-caps:normal;font-variant-numeric:normal;font-feature-settings:normal;text-align:end;writing-mode:lr-tb;text-anchor:end;stroke-width:0.28252149;fill:#fafafa;fill-opacity:1"
           id="path835" />
        <path
           d="m 58.455468,90.538964 q 0.119492,0 0.183833,0.119491 0.06434,0.119492 0.06434,0.303325 0,0.441199 -0.266558,0.523924 -0.5515,0.193025 -1.213299,0.2206 -0.174641,0.772099 -0.689374,1.240873 -0.514733,0.459583 -1.16734,0.459583 -0.551499,0 -0.946741,-0.266558 -0.386049,-0.266558 -0.588265,-0.707757 -0.202217,-0.4412 -0.202217,-0.955933 0,-0.698565 0.266558,-1.240873 0.266558,-0.551499 0.735333,-0.854824 0.468774,-0.312516 1.038657,-0.312516 0.698565,0 1.121382,0.487157 0.432007,0.477967 0.505541,1.185724 0.432007,-0.02757 1.029465,-0.183833 0.07353,-0.01838 0.128683,-0.01838 z m -3.014863,1.893481 q 0.294133,0 0.505541,-0.238984 0.2206,-0.238983 0.294133,-0.689374 -0.284941,-0.193024 -0.441199,-0.505541 -0.147067,-0.312516 -0.147067,-0.661799 0,-0.147066 0.02758,-0.294133 h -0.04596 q -0.367666,0 -0.615841,0.358475 -0.238983,0.349283 -0.238983,0.992698 0,0.505542 0.193025,0.7721 0.202216,0.266558 0.468774,0.266558 z"
           style="font-style:normal;font-variant:normal;font-weight:normal;font-stretch:normal;font-size:9.19165516px;font-family:Pacifico;-inkscape-font-specification:'Pacifico, Normal';font-variant-ligatures:normal;font-variant-caps:normal;font-variant-numeric:normal;font-feature-settings:normal;text-align:end;writing-mode:lr-tb;text-anchor:end;stroke-width:0.28252149;fill:#fafafa;fill-opacity:1"
           id="path837" />
        <path
           d="m 61.03071,89.380815 q 0.229791,0 0.321708,0.07353 0.101108,0.06434 0.101108,0.266558 0,0.1103 -0.0092,0.174642 -0.03677,0.284941 -0.229791,1.470665 -0.137875,0.799674 -0.174642,1.05704 -0.349283,2.371447 -0.94674,3.741004 -0.588266,1.378748 -1.580965,1.378748 -0.468774,0 -0.762907,-0.294133 -0.294133,-0.284941 -0.294133,-0.753716 0,-0.652607 0.514733,-1.406323 0.514732,-0.744524 1.930247,-1.838331 l 0.05515,-0.358475 q -0.156258,0.248175 -0.413624,0.38605 -0.248175,0.128683 -0.49635,0.128683 -0.569882,0 -0.909974,-0.413625 -0.340091,-0.413624 -0.340091,-1.084615 0,-0.735332 0.340091,-1.38794 0.340092,-0.661799 0.900783,-1.05704 0.569882,-0.404433 1.204106,-0.404433 0.202217,0 0.266558,0.08272 0.07353,0.07353 0.119492,0.27575 0.174641,-0.03677 0.404433,-0.03677 z m -1.654498,3.097588 q 0.211408,0 0.404433,-0.257367 0.193024,-0.257366 0.275749,-0.735332 l 0.294133,-1.571773 q -0.376858,0.0092 -0.698566,0.294133 -0.321708,0.27575 -0.514732,0.735332 -0.193025,0.459583 -0.193025,0.974316 0,0.284941 0.1103,0.422816 0.119491,0.137875 0.321708,0.137875 z m -0.762908,4.173011 q 0.229792,0 0.514733,-0.551499 0.294133,-0.551499 0.560691,-1.755606 -0.707757,0.606649 -1.020274,1.093807 -0.312516,0.487157 -0.312516,0.854824 0,0.156258 0.05515,0.257366 0.06434,0.101108 0.202216,0.101108 z"
           style="font-style:normal;font-variant:normal;font-weight:normal;font-stretch:normal;font-size:9.19165516px;font-family:Pacifico;-inkscape-font-specification:'Pacifico, Normal';font-variant-ligatures:normal;font-variant-caps:normal;font-variant-numeric:normal;font-feature-settings:normal;text-align:end;writing-mode:lr-tb;text-anchor:end;stroke-width:0.28252149;fill:#fafafa;fill-opacity:1"
           id="path839" />
      </g>
      <g
         aria-label="by Angel Pasamontes"
         style="font-style:normal;font-variant:normal;font-weight:normal;font-stretch:normal;font-size:2.45074201px;line-height:1.25;font-family:Pacifico;-inkscape-font-specification:'Pacifico, Normal';font-variant-ligatures:normal;font-variant-caps:normal;font-variant-numeric:normal;font-feature-settings:normal;text-align:end;letter-spacing:0px;word-spacing:0px;writing-mode:lr-tb;text-anchor:end;fill:#fafafa;fill-opacity:1;stroke:none;stroke-width:0.28252149"
         id="text821">
        <path
           d="m 36.049488,95.72211 q 0.03186,0 0.04902,0.03186 0.01716,0.03186 0.01716,0.08088 0,0.06127 -0.01716,0.09558 -0.01716,0.03186 -0.05392,0.04411 -0.147044,0.05147 -0.323498,0.05882 -0.04901,0.203411 -0.186256,0.328399 -0.134791,0.124988 -0.298991,0.124988 -0.247525,0 -0.360259,-0.188707 -0.112734,-0.188707 -0.112734,-0.546516 0,-0.316145 0.07842,-0.686207 0.07842,-0.372513 0.227919,-0.632292 0.151946,-0.262229 0.360259,-0.262229 0.112734,0 0.181355,0.09803 0.06862,0.09558 0.06862,0.249976 0,0.200961 -0.07597,0.399471 -0.07597,0.19851 -0.252427,0.416626 0.1642,0.01225 0.267131,0.137242 0.102931,0.122537 0.122537,0.303892 0.115185,-0.0074 0.274483,-0.04901 0.0147,-0.0049 0.03431,-0.0049 z m -0.676405,-1.308697 q -0.04902,0 -0.107833,0.147045 -0.05637,0.144594 -0.105382,0.394569 -0.04901,0.249976 -0.07352,0.546516 0.161749,-0.29654 0.257328,-0.522008 0.09803,-0.227919 0.09803,-0.404373 0,-0.07842 -0.01961,-0.120086 -0.01715,-0.04166 -0.04901,-0.04166 z m -0.127439,1.813549 q 0.07597,0 0.134791,-0.06372 0.05882,-0.06372 0.07842,-0.183806 -0.07597,-0.05147 -0.117636,-0.13479 -0.03921,-0.08333 -0.03921,-0.176454 0,-0.03431 0.0098,-0.09313 h -0.0074 q -0.10048,0 -0.169101,0.10048 -0.06617,0.09803 -0.06617,0.264681 0,0.139692 0.05147,0.213214 0.05392,0.07352 0.124987,0.07352 z"
           style="font-style:normal;font-variant:normal;font-weight:normal;font-stretch:normal;font-size:2.45074201px;font-family:Pacifico;-inkscape-font-specification:'Pacifico, Normal';font-variant-ligatures:normal;font-variant-caps:normal;font-variant-numeric:normal;font-feature-settings:normal;text-align:end;writing-mode:lr-tb;text-anchor:end;stroke-width:0.28252149;fill:#fafafa;fill-opacity:1"
           id="path842" />
        <path
           d="m 36.761811,95.332442 q 0.05637,0 0.07842,0.0147 0.02206,0.0147 0.02206,0.04902 0,0.05882 -0.06372,0.419077 -0.05637,0.345554 -0.06617,0.409274 -0.09068,0.62984 -0.249975,0.997452 -0.159299,0.367611 -0.423979,0.367611 -0.124987,0 -0.203411,-0.07842 -0.07842,-0.07597 -0.07842,-0.200961 0,-0.115185 0.05147,-0.235271 0.05392,-0.120086 0.196059,-0.276934 0.144594,-0.154396 0.406823,-0.355357 l 0.0074,-0.05637 q 0.01716,-0.09068 0.03921,-0.259779 -0.04901,0.176453 -0.137241,0.269582 -0.08823,0.09068 -0.186257,0.09068 -0.110283,0 -0.181355,-0.10048 -0.06862,-0.102932 -0.06862,-0.254878 0,-0.183805 0.02451,-0.335751 0.02451,-0.154397 0.08087,-0.325949 0.02451,-0.07352 0.06862,-0.105382 0.04411,-0.03186 0.139693,-0.03186 0.05392,0 0.07352,0.01716 0.02206,0.01716 0.02206,0.05146 0,0.01961 -0.02696,0.13234 -0.02451,0.09068 -0.03921,0.1642 -0.0196,0.100481 -0.03431,0.193609 -0.0147,0.09068 -0.0147,0.149495 0,0.09313 0.05147,0.09313 0.03676,0 0.09068,-0.07352 0.05637,-0.07352 0.117635,-0.223018 0.06372,-0.149495 0.122537,-0.367611 0.01961,-0.07352 0.05882,-0.105382 0.04166,-0.03186 0.122537,-0.03186 z m -0.676404,2.019411 q 0.06127,0 0.137241,-0.142143 0.07597,-0.142143 0.151946,-0.472993 -0.188707,0.159298 -0.274483,0.289187 -0.08332,0.13234 -0.08332,0.23037 0,0.04166 0.0147,0.06862 0.01716,0.02696 0.05392,0.02696 z"
           style="font-style:normal;font-variant:normal;font-weight:normal;font-stretch:normal;font-size:2.45074201px;font-family:Pacifico;-inkscape-font-specification:'Pacifico, Normal';font-variant-ligatures:normal;font-variant-caps:normal;font-variant-numeric:normal;font-feature-settings:normal;text-align:end;writing-mode:lr-tb;text-anchor:end;stroke-width:0.28252149;fill:#fafafa;fill-opacity:1"
           id="path844" />
        <path
           d="m 38.273536,96.486741 q -0.169101,0 -0.306343,-0.08332 -0.13479,-0.08333 -0.213214,-0.240173 -0.07842,-0.159298 -0.07842,-0.374963 0,-0.372513 0.159298,-0.688659 0.159299,-0.318596 0.470543,-0.509754 0.311244,-0.193609 0.747476,-0.193609 0.112734,0 0.240173,0.01716 0.129889,0.01715 0.235271,0.05147 0.06862,0.01961 0.06862,0.09803 0,0.06372 -0.04901,0.120086 -0.04656,0.05637 -0.110283,0.05637 -0.01961,0 -0.02941,-0.0025 -0.127439,-0.02941 -0.218116,-0.04166 -0.09068,-0.01471 -0.191158,-0.01471 -0.311244,0 -0.52936,0.151946 -0.218117,0.149495 -0.325949,0.39702 -0.107833,0.247525 -0.107833,0.534262 0,0.208313 0.08087,0.323498 0.08333,0.112734 0.215665,0.112734 0.149495,0 0.262229,-0.122537 0.112735,-0.122537 0.205863,-0.39702 0.09313,-0.274483 0.183805,-0.745026 0.0147,-0.06862 0.05882,-0.09313 0.04411,-0.02451 0.117636,-0.02451 0.174002,0 0.174002,0.112734 0,0.01961 -0.0074,0.04901 -0.06372,0.237722 -0.117635,0.526909 -0.05147,0.286737 -0.05147,0.436232 0,0.13234 0.03921,0.193609 0.03921,0.05882 0.120086,0.05882 0.07842,0 0.149496,-0.05147 0.07107,-0.05392 0.178904,-0.181355 0.02941,-0.03431 0.06617,-0.03431 0.03186,0 0.04901,0.02941 0.01961,0.02941 0.01961,0.08087 0,0.09558 -0.04657,0.151946 -0.120086,0.144594 -0.235271,0.220567 -0.115185,0.07597 -0.281835,0.07597 -0.171552,0 -0.276934,-0.09803 -0.105382,-0.10048 -0.13234,-0.281835 -0.181355,0.379865 -0.534262,0.379865 z"
           style="font-style:normal;font-variant:normal;font-weight:normal;font-stretch:normal;font-size:2.45074201px;font-family:Pacifico;-inkscape-font-specification:'Pacifico, Normal';font-variant-ligatures:normal;font-variant-caps:normal;font-variant-numeric:normal;font-feature-settings:normal;text-align:end;writing-mode:lr-tb;text-anchor:end;stroke-width:0.28252149;fill:#fafafa;fill-opacity:1"
           id="path846" />
        <path
           d="m 39.754167,96.486741 q -0.09313,0 -0.13234,-0.09803 -0.03676,-0.09803 -0.03676,-0.313695 0,-0.318596 0.09068,-0.605333 0.02206,-0.07107 0.07107,-0.102931 0.05147,-0.03431 0.142143,-0.03431 0.04901,0 0.06862,0.01225 0.01961,0.01225 0.01961,0.04656 0,0.03921 -0.03676,0.176454 -0.02451,0.09803 -0.03921,0.171552 -0.0147,0.07352 -0.02451,0.181355 0.08087,-0.210764 0.181354,-0.343104 0.100481,-0.13234 0.19606,-0.188707 0.09803,-0.05637 0.178904,-0.05637 0.159298,0 0.159298,0.159298 0,0.09558 -0.05392,0.345554 -0.04656,0.213215 -0.04656,0.281836 0,0.09803 0.07107,0.09803 0.04902,0 0.115185,-0.05882 0.06862,-0.06127 0.181355,-0.19606 0.02941,-0.03431 0.06617,-0.03431 0.03186,0 0.04902,0.02941 0.01961,0.02941 0.01961,0.08087 0,0.09803 -0.04656,0.151946 -0.105382,0.12989 -0.227919,0.213215 -0.120087,0.08332 -0.274483,0.08332 -0.124988,0 -0.188707,-0.07107 -0.06372,-0.07352 -0.06372,-0.210763 0,-0.06862 0.03431,-0.245075 0.03186,-0.154396 0.03186,-0.213214 0,-0.03921 -0.02696,-0.03921 -0.03186,0 -0.09068,0.08333 -0.05637,0.08088 -0.117636,0.215666 -0.05882,0.13479 -0.09558,0.284286 -0.02696,0.115185 -0.06372,0.156847 -0.03431,0.03921 -0.110284,0.03921 z"
           style="font-style:normal;font-variant:normal;font-weight:normal;font-stretch:normal;font-size:2.45074201px;font-family:Pacifico;-inkscape-font-specification:'Pacifico, Normal';font-variant-ligatures:normal;font-variant-caps:normal;font-variant-numeric:normal;font-feature-settings:normal;text-align:end;writing-mode:lr-tb;text-anchor:end;stroke-width:0.28252149;fill:#fafafa;fill-opacity:1"
           id="path848" />
        <path
           d="m 42.050742,95.932873 q 0.03186,0 0.04901,0.03186 0.01961,0.02941 0.01961,0.07597 0,0.05637 -0.01716,0.08823 -0.01716,0.03186 -0.05392,0.05637 -0.210763,0.142143 -0.308793,0.210764 l -0.156848,0.105381 q -0.09313,0.507304 -0.245074,0.796492 -0.149495,0.291638 -0.382316,0.291638 -0.124987,0 -0.203411,-0.07842 -0.07842,-0.07597 -0.07842,-0.200961 0,-0.174002 0.137242,-0.374963 0.137241,-0.19851 0.514655,-0.490149 l 0.0147,-0.09558 q -0.04166,0.06617 -0.110284,0.102932 -0.06617,0.03431 -0.13234,0.03431 -0.151946,0 -0.242623,-0.110283 -0.09068,-0.110284 -0.09068,-0.289188 0,-0.196059 0.09068,-0.370062 0.09068,-0.176453 0.240173,-0.281835 0.151946,-0.107833 0.321047,-0.107833 0.05392,0 0.07107,0.02206 0.01961,0.01961 0.03186,0.07352 0.04656,-0.0098 0.107833,-0.0098 0.06127,0 0.08578,0.01961 0.02696,0.01715 0.02696,0.07107 0,0.02941 -0.0025,0.04657 -0.0098,0.07597 -0.06127,0.384766 -0.0098,0.05882 -0.02206,0.129889 -0.0098,0.06862 -0.02206,0.147045 0.188707,-0.147045 0.36271,-0.259779 0.03186,-0.01961 0.05637,-0.01961 z m -0.865112,0.306343 q 0.05637,0 0.107833,-0.06862 0.05147,-0.06862 0.07352,-0.196059 l 0.07842,-0.419077 q -0.100481,0.0025 -0.186257,0.07842 -0.08578,0.07352 -0.137241,0.196059 -0.05147,0.122537 -0.05147,0.259779 0,0.07597 0.02941,0.112734 0.03186,0.03676 0.08578,0.03676 z m -0.203411,1.112637 q 0.06127,0 0.137241,-0.147045 0.07842,-0.147044 0.149495,-0.468091 -0.188707,0.161749 -0.272032,0.291638 -0.08333,0.129889 -0.08333,0.227919 0,0.04166 0.0147,0.06862 0.01715,0.02696 0.05392,0.02696 z"
           style="font-style:normal;font-variant:normal;font-weight:normal;font-stretch:normal;font-size:2.45074201px;font-family:Pacifico;-inkscape-font-specification:'Pacifico, Normal';font-variant-ligatures:normal;font-variant-caps:normal;font-variant-numeric:normal;font-feature-settings:normal;text-align:end;writing-mode:lr-tb;text-anchor:end;stroke-width:0.28252149;fill:#fafafa;fill-opacity:1"
           id="path850" />
        <path
           d="m 43.061712,95.927972 q 0.03186,0 0.04901,0.02941 0.01961,0.02941 0.01961,0.08087 0,0.09803 -0.04656,0.151946 -0.09068,0.110284 -0.257328,0.203412 -0.164199,0.09313 -0.352906,0.09313 -0.257328,0 -0.399471,-0.139692 -0.142143,-0.139693 -0.142143,-0.382316 0,-0.169101 0.07107,-0.313695 0.07107,-0.147045 0.196059,-0.232821 0.127439,-0.08577 0.286737,-0.08577 0.142143,0 0.227919,0.08577 0.08578,0.08333 0.08578,0.22792 0,0.169101 -0.122537,0.291638 -0.120086,0.120086 -0.409274,0.191158 0.06127,0.112734 0.232821,0.112734 0.110283,0 0.249975,-0.07597 0.142143,-0.07842 0.245075,-0.203412 0.02941,-0.03431 0.06617,-0.03431 z m -0.617587,-0.355358 q -0.09068,0 -0.154397,0.105382 -0.06127,0.105382 -0.06127,0.254877 v 0.0049 q 0.144594,-0.03431 0.227919,-0.102931 0.08333,-0.06862 0.08333,-0.159299 0,-0.04656 -0.02696,-0.07352 -0.02451,-0.02941 -0.06862,-0.02941 z"
           style="font-style:normal;font-variant:normal;font-weight:normal;font-stretch:normal;font-size:2.45074201px;font-family:Pacifico;-inkscape-font-specification:'Pacifico, Normal';font-variant-ligatures:normal;font-variant-caps:normal;font-variant-numeric:normal;font-feature-settings:normal;text-align:end;writing-mode:lr-tb;text-anchor:end;stroke-width:0.28252149;fill:#fafafa;fill-opacity:1"
           id="path852" />
        <path
           d="m 43.639053,96.128933 q 0.02696,-0.02451 0.05392,-0.02451 0.02941,0 0.04656,0.03431 0.01961,0.03186 0.01961,0.07842 0,0.102932 -0.07352,0.1642 -0.127438,0.105382 -0.289187,0.105382 -0.232821,0 -0.340653,-0.193609 -0.107833,-0.196059 -0.107833,-0.509754 0,-0.29899 0.07597,-0.681306 0.07842,-0.382316 0.227919,-0.656799 0.151946,-0.274483 0.360259,-0.274483 0.117636,0 0.183806,0.110283 0.06862,0.107833 0.06862,0.311244 0,0.291639 -0.161749,0.676405 -0.159299,0.384767 -0.436233,0.75973 0.01716,0.100481 0.06127,0.144594 0.04411,0.04411 0.120086,0.04411 0.04166,0 0.09313,-0.02451 0.05392,-0.02451 0.09803,-0.06372 z m -0.08087,-1.71552 q -0.05637,0 -0.127439,0.203412 -0.07107,0.203411 -0.124988,0.504853 -0.05392,0.301441 -0.05882,0.578375 0.174002,-0.286737 0.276933,-0.573474 0.102932,-0.289187 0.102932,-0.526909 0,-0.186257 -0.06862,-0.186257 z"
           style="font-style:normal;font-variant:normal;font-weight:normal;font-stretch:normal;font-size:2.45074201px;font-family:Pacifico;-inkscape-font-specification:'Pacifico, Normal';font-variant-ligatures:normal;font-variant-caps:normal;font-variant-numeric:normal;font-feature-settings:normal;text-align:end;writing-mode:lr-tb;text-anchor:end;stroke-width:0.28252149;fill:#fafafa;fill-opacity:1"
           id="path854" />
        <path
           d="m 46.380973,95.013845 q 0,0.208313 -0.107832,0.382316 -0.107833,0.174003 -0.313695,0.284286 -0.205863,0.110283 -0.490149,0.129889 l -0.105382,0.590629 q -0.06127,0.340653 -0.333301,0.340653 -0.149495,0 -0.276933,-0.08823 -0.124988,-0.08823 -0.200961,-0.269581 -0.07597,-0.181355 -0.07597,-0.446035 0,-0.497501 0.159298,-0.843055 0.161749,-0.348006 0.431331,-0.519558 0.272032,-0.174002 0.597981,-0.174002 0.230369,0 0.389668,0.08087 0.161749,0.08088 0.242623,0.220567 0.08332,0.137241 0.08332,0.311244 z m -0.867562,0.544065 q 0.502402,-0.06372 0.502402,-0.522008 0,-0.161749 -0.107833,-0.26223 -0.105382,-0.102931 -0.328399,-0.102931 -0.252427,0 -0.441134,0.159298 -0.186256,0.159299 -0.289187,0.443585 -0.100481,0.281835 -0.100481,0.644545 0,0.151946 0.02941,0.269581 0.03186,0.117636 0.07842,0.183806 0.04902,0.06372 0.09313,0.06372 0.06127,0 0.09313,-0.169101 l 0.08087,-0.46319 q -0.09558,-0.0147 -0.08333,-0.01225 -0.07352,-0.01225 -0.09558,-0.04411 -0.02206,-0.03431 -0.02206,-0.08578 0,-0.05392 0.02941,-0.08578 0.03186,-0.03186 0.08578,-0.03186 0.02451,0 0.03676,0.0025 0.05882,0.0098 0.09068,0.01225 0.03186,-0.191158 0.09068,-0.512205 0.0147,-0.08333 0.06617,-0.117636 0.05392,-0.03676 0.124988,-0.03676 0.08087,0 0.115184,0.03186 0.03676,0.02941 0.03676,0.09558 0,0.03921 -0.0049,0.06372 z"
           style="font-style:normal;font-variant:normal;font-weight:normal;font-stretch:normal;font-size:2.45074201px;font-family:Pacifico;-inkscape-font-specification:'Pacifico, Normal';font-variant-ligatures:normal;font-variant-caps:normal;font-variant-numeric:normal;font-feature-settings:normal;text-align:end;writing-mode:lr-tb;text-anchor:end;stroke-width:0.28252149;fill:#fafafa;fill-opacity:1"
           id="path856" />
        <path
           d="m 46.54456,96.486741 q -0.151946,0 -0.242623,-0.110283 -0.09068,-0.110284 -0.09068,-0.289188 0,-0.196059 0.09068,-0.370062 0.09068,-0.176453 0.240173,-0.281835 0.151946,-0.107833 0.321047,-0.107833 0.05392,0 0.07107,0.02206 0.01961,0.01961 0.03186,0.07352 0.05147,-0.0098 0.107833,-0.0098 0.120086,0 0.120086,0.08578 0,0.05147 -0.03676,0.245074 -0.05637,0.281836 -0.05637,0.392119 0,0.03676 0.01716,0.05882 0.01961,0.02206 0.04901,0.02206 0.04656,0 0.112734,-0.05882 0.06617,-0.06127 0.178904,-0.19606 0.02941,-0.03431 0.06617,-0.03431 0.03186,0 0.04902,0.02941 0.01961,0.02941 0.01961,0.08087 0,0.09803 -0.04656,0.151946 -0.100481,0.124988 -0.213215,0.210764 -0.112734,0.08578 -0.218116,0.08578 -0.08087,0 -0.149495,-0.05392 -0.06617,-0.05637 -0.10048,-0.151946 -0.127439,0.205862 -0.321048,0.205862 z m 0.08823,-0.247525 q 0.05392,0 0.102931,-0.06372 0.04902,-0.06372 0.07107,-0.169101 l 0.09068,-0.450937 q -0.102931,0.0025 -0.191158,0.07842 -0.08578,0.07352 -0.137241,0.196059 -0.05147,0.122537 -0.05147,0.259779 0,0.07597 0.02941,0.112734 0.03186,0.03676 0.08578,0.03676 z"
           style="font-style:normal;font-variant:normal;font-weight:normal;font-stretch:normal;font-size:2.45074201px;font-family:Pacifico;-inkscape-font-specification:'Pacifico, Normal';font-variant-ligatures:normal;font-variant-caps:normal;font-variant-numeric:normal;font-feature-settings:normal;text-align:end;writing-mode:lr-tb;text-anchor:end;stroke-width:0.28252149;fill:#fafafa;fill-opacity:1"
           id="path858" />
        <path
           d="m 47.852529,96.540657 q -0.127438,0 -0.196059,-0.05882 -0.06617,-0.05882 -0.06617,-0.132341 0,-0.06372 0.04656,-0.110283 0.04656,-0.04656 0.137241,-0.04656 0.03186,0 0.07352,0.0074 0.04411,0.0049 0.06617,0.0074 -0.0025,-0.06372 -0.02941,-0.120086 -0.02451,-0.05637 -0.06372,-0.107833 -0.03921,-0.05392 -0.07352,-0.09313 -0.07597,0.144594 -0.151946,0.240173 -0.07352,0.09558 -0.161749,0.181355 -0.04411,0.04411 -0.09313,0.04411 -0.03921,0 -0.06372,-0.02696 -0.02451,-0.02941 -0.02451,-0.07107 0,-0.04902 0.03431,-0.09068 l 0.03186,-0.03921 q 0.134791,-0.16665 0.203412,-0.274483 0.04166,-0.07107 0.09803,-0.188707 0.05637,-0.120086 0.110283,-0.247525 0.04656,-0.107833 0.193609,-0.107833 0.06862,0 0.09558,0.01225 0.02696,0.01225 0.02696,0.03921 0,0.0147 -0.0098,0.04656 -0.0098,0.03186 -0.02696,0.06372 -0.04411,0.08823 -0.04411,0.149496 0,0.03676 0.02451,0.08087 0.02696,0.04411 0.08087,0.110283 0.07842,0.102932 0.117636,0.176454 0.04166,0.07107 0.04166,0.156847 0,0.02451 -0.0049,0.06862 0.120086,-0.04656 0.281835,-0.247525 0.02941,-0.03431 0.06617,-0.03431 0.03186,0 0.04901,0.02941 0.01961,0.02941 0.01961,0.08087 0,0.09313 -0.04656,0.151946 -0.122537,0.151946 -0.235271,0.208313 -0.110284,0.05392 -0.274483,0.05882 -0.09803,0.08333 -0.232821,0.08333 z"
           style="font-style:normal;font-variant:normal;font-weight:normal;font-stretch:normal;font-size:2.45074201px;font-family:Pacifico;-inkscape-font-specification:'Pacifico, Normal';font-variant-ligatures:normal;font-variant-caps:normal;font-variant-numeric:normal;font-feature-settings:normal;text-align:end;writing-mode:lr-tb;text-anchor:end;stroke-width:0.28252149;fill:#fafafa;fill-opacity:1"
           id="path860" />
        <path
           d="m 48.746399,96.486741 q -0.151946,0 -0.242624,-0.110283 -0.09068,-0.110284 -0.09068,-0.289188 0,-0.196059 0.09068,-0.370062 0.09068,-0.176453 0.240173,-0.281835 0.151946,-0.107833 0.321047,-0.107833 0.05392,0 0.07107,0.02206 0.01961,0.01961 0.03186,0.07352 0.05147,-0.0098 0.107833,-0.0098 0.120086,0 0.120086,0.08578 0,0.05147 -0.03676,0.245074 -0.05637,0.281836 -0.05637,0.392119 0,0.03676 0.01715,0.05882 0.01961,0.02206 0.04902,0.02206 0.04656,0 0.112734,-0.05882 0.06617,-0.06127 0.178905,-0.19606 0.02941,-0.03431 0.06617,-0.03431 0.03186,0 0.04901,0.02941 0.01961,0.02941 0.01961,0.08087 0,0.09803 -0.04656,0.151946 -0.10048,0.124988 -0.213214,0.210764 -0.112734,0.08578 -0.218116,0.08578 -0.08087,0 -0.149496,-0.05392 -0.06617,-0.05637 -0.10048,-0.151946 -0.127439,0.205862 -0.321047,0.205862 z m 0.08823,-0.247525 q 0.05392,0 0.102931,-0.06372 0.04902,-0.06372 0.07107,-0.169101 l 0.09068,-0.450937 q -0.102931,0.0025 -0.191158,0.07842 -0.08578,0.07352 -0.137242,0.196059 -0.05146,0.122537 -0.05146,0.259779 0,0.07597 0.02941,0.112734 0.03186,0.03676 0.08578,0.03676 z"
           style="font-style:normal;font-variant:normal;font-weight:normal;font-stretch:normal;font-size:2.45074201px;font-family:Pacifico;-inkscape-font-specification:'Pacifico, Normal';font-variant-ligatures:normal;font-variant-caps:normal;font-variant-numeric:normal;font-feature-settings:normal;text-align:end;writing-mode:lr-tb;text-anchor:end;stroke-width:0.28252149;fill:#fafafa;fill-opacity:1"
           id="path862" />
        <path
           d="m 49.772532,96.486741 q -0.09313,0 -0.13234,-0.09803 -0.03676,-0.09803 -0.03676,-0.313695 0,-0.318596 0.09068,-0.605333 0.02206,-0.07107 0.07107,-0.102931 0.05147,-0.03431 0.142143,-0.03431 0.04902,0 0.06862,0.01225 0.01961,0.01225 0.01961,0.04656 0,0.03921 -0.03676,0.176454 -0.02451,0.09803 -0.03921,0.171552 -0.0147,0.07107 -0.02451,0.178904 0.06617,-0.191158 0.156848,-0.323498 0.09313,-0.13234 0.188707,-0.196059 0.09803,-0.06617 0.183806,-0.06617 0.08578,0 0.120086,0.03921 0.03676,0.03921 0.03676,0.120087 0,0.07842 -0.04656,0.284286 -0.01961,0.08823 -0.02696,0.13234 0.122537,-0.301441 0.272032,-0.438683 0.149496,-0.137241 0.279385,-0.137241 0.159298,0 0.159298,0.159298 0,0.09558 -0.05392,0.345554 -0.04656,0.213215 -0.04656,0.281836 0,0.09803 0.07107,0.09803 0.04901,0 0.115185,-0.05882 0.06862,-0.06127 0.181355,-0.19606 0.02941,-0.03431 0.06617,-0.03431 0.03186,0 0.04901,0.02941 0.01961,0.02941 0.01961,0.08087 0,0.09803 -0.04656,0.151946 -0.105382,0.12989 -0.227919,0.213215 -0.120087,0.08332 -0.274483,0.08332 -0.124988,0 -0.188708,-0.07107 -0.06372,-0.07352 -0.06372,-0.210763 0,-0.06862 0.03431,-0.245075 0.03186,-0.154396 0.03186,-0.213214 0,-0.03921 -0.02696,-0.03921 -0.03186,0 -0.09068,0.08333 -0.05882,0.08088 -0.117636,0.215666 -0.05882,0.13479 -0.09558,0.284286 -0.02696,0.117635 -0.06372,0.156847 -0.03431,0.03921 -0.112734,0.03921 -0.08087,0 -0.122537,-0.07597 -0.03921,-0.07842 -0.03921,-0.188707 0,-0.09313 0.02451,-0.269582 0.01961,-0.156847 0.01961,-0.205862 0,-0.03921 -0.02696,-0.03921 -0.03676,0 -0.09313,0.08823 -0.05637,0.08823 -0.110284,0.225468 -0.05147,0.137242 -0.08333,0.269582 -0.02696,0.115185 -0.06372,0.156847 -0.03431,0.03921 -0.110284,0.03921 z"
           style="font-style:normal;font-variant:normal;font-weight:normal;font-stretch:normal;font-size:2.45074201px;font-family:Pacifico;-inkscape-font-specification:'Pacifico, Normal';font-variant-ligatures:normal;font-variant-caps:normal;font-variant-numeric:normal;font-feature-settings:normal;text-align:end;writing-mode:lr-tb;text-anchor:end;stroke-width:0.28252149;fill:#fafafa;fill-opacity:1"
           id="path864" />
        <path
           d="m 52.672104,95.72211 q 0.03186,0 0.04902,0.03186 0.01715,0.03186 0.01715,0.08088 0,0.117635 -0.07107,0.139692 -0.147045,0.05147 -0.323498,0.05882 -0.04656,0.205862 -0.183806,0.33085 -0.137241,0.122537 -0.311244,0.122537 -0.147045,0 -0.252427,-0.07107 -0.102931,-0.07107 -0.156847,-0.188707 -0.05392,-0.117635 -0.05392,-0.254877 0,-0.186256 0.07107,-0.33085 0.07107,-0.147044 0.19606,-0.227919 0.124987,-0.08332 0.276933,-0.08332 0.186257,0 0.298991,0.129889 0.115185,0.127439 0.134791,0.316146 0.115185,-0.0074 0.274483,-0.04901 0.01961,-0.0049 0.03431,-0.0049 z m -0.803843,0.504852 q 0.07842,0 0.134791,-0.06372 0.05882,-0.06372 0.07842,-0.183806 -0.07597,-0.05147 -0.117635,-0.13479 -0.03921,-0.08333 -0.03921,-0.176454 0,-0.03921 0.0074,-0.07842 h -0.01225 q -0.09803,0 -0.164199,0.09558 -0.06372,0.09313 -0.06372,0.264681 0,0.13479 0.05147,0.205862 0.05392,0.07107 0.124988,0.07107 z"
           style="font-style:normal;font-variant:normal;font-weight:normal;font-stretch:normal;font-size:2.45074201px;font-family:Pacifico;-inkscape-font-specification:'Pacifico, Normal';font-variant-ligatures:normal;font-variant-caps:normal;font-variant-numeric:normal;font-feature-settings:normal;text-align:end;writing-mode:lr-tb;text-anchor:end;stroke-width:0.28252149;fill:#fafafa;fill-opacity:1"
           id="path866" />
        <path
           d="m 52.701936,96.486741 q -0.09313,0 -0.13234,-0.09803 -0.03676,-0.09803 -0.03676,-0.313695 0,-0.318596 0.09068,-0.605333 0.02206,-0.07107 0.07107,-0.102931 0.05147,-0.03431 0.142143,-0.03431 0.04902,0 0.06862,0.01225 0.01961,0.01225 0.01961,0.04656 0,0.03921 -0.03676,0.176454 -0.02451,0.09803 -0.03921,0.171552 -0.0147,0.07352 -0.02451,0.181355 0.08087,-0.210764 0.181355,-0.343104 0.10048,-0.13234 0.196059,-0.188707 0.09803,-0.05637 0.178904,-0.05637 0.159298,0 0.159298,0.159298 0,0.09558 -0.05392,0.345554 -0.04656,0.213215 -0.04656,0.281836 0,0.09803 0.07107,0.09803 0.04901,0 0.115185,-0.05882 0.06862,-0.06127 0.181355,-0.19606 0.02941,-0.03431 0.06617,-0.03431 0.03186,0 0.04901,0.02941 0.01961,0.02941 0.01961,0.08087 0,0.09803 -0.04656,0.151946 -0.105382,0.12989 -0.227919,0.213215 -0.120086,0.08332 -0.274483,0.08332 -0.124988,0 -0.188707,-0.07107 -0.06372,-0.07352 -0.06372,-0.210763 0,-0.06862 0.03431,-0.245075 0.03186,-0.154396 0.03186,-0.213214 0,-0.03921 -0.02696,-0.03921 -0.03186,0 -0.09068,0.08333 -0.05637,0.08088 -0.117636,0.215666 -0.05882,0.13479 -0.09558,0.284286 -0.02696,0.115185 -0.06372,0.156847 -0.03431,0.03921 -0.110283,0.03921 z"
           style="font-style:normal;font-variant:normal;font-weight:normal;font-stretch:normal;font-size:2.45074201px;font-family:Pacifico;-inkscape-font-specification:'Pacifico, Normal';font-variant-ligatures:normal;font-variant-caps:normal;font-variant-numeric:normal;font-feature-settings:normal;text-align:end;writing-mode:lr-tb;text-anchor:end;stroke-width:0.28252149;fill:#fafafa;fill-opacity:1"
           id="path868" />
        <path
           d="m 54.836761,95.927972 q 0.03186,0 0.04901,0.02941 0.01961,0.02941 0.01961,0.08087 0,0.09803 -0.04656,0.151946 -0.105382,0.12989 -0.23037,0.213215 -0.124988,0.08332 -0.286737,0.08332 -0.499951,0 -0.499951,-0.703363 0,-0.107833 0.0074,-0.218116 h -0.09558 q -0.07352,0 -0.10048,-0.02696 -0.02451,-0.02696 -0.02451,-0.08578 0,-0.137242 0.110283,-0.137242 h 0.139692 q 0.04166,-0.269581 0.127439,-0.492599 0.08578,-0.223017 0.205862,-0.355357 0.122537,-0.13234 0.262229,-0.13234 0.102932,0 0.161749,0.09068 0.05882,0.09068 0.05882,0.227919 0,0.379865 -0.318596,0.6617 h 0.274483 q 0.03921,0 0.05637,0.01716 0.01716,0.01716 0.01716,0.06372 0,0.169101 -0.276934,0.169101 h -0.29899 q -0.0049,0.122537 -0.0049,0.191158 0,0.254877 0.05882,0.357808 0.06127,0.102931 0.191158,0.102931 0.105382,0 0.186256,-0.06372 0.08087,-0.06372 0.191158,-0.191158 0.02941,-0.03431 0.06617,-0.03431 z m -0.42888,-1.357711 q -0.03676,0 -0.08333,0.09313 -0.04411,0.09068 -0.08578,0.254877 -0.03921,0.161749 -0.06617,0.360259 0.144594,-0.124988 0.215666,-0.279384 0.07352,-0.156848 0.07352,-0.284286 0,-0.144594 -0.05392,-0.144594 z"
           style="font-style:normal;font-variant:normal;font-weight:normal;font-stretch:normal;font-size:2.45074201px;font-family:Pacifico;-inkscape-font-specification:'Pacifico, Normal';font-variant-ligatures:normal;font-variant-caps:normal;font-variant-numeric:normal;font-feature-settings:normal;text-align:end;writing-mode:lr-tb;text-anchor:end;stroke-width:0.28252149;fill:#fafafa;fill-opacity:1"
           id="path870" />
        <path
           d="m 55.798868,95.927972 q 0.03186,0 0.04902,0.02941 0.01961,0.02941 0.01961,0.08087 0,0.09803 -0.04656,0.151946 -0.09068,0.110284 -0.257328,0.203412 -0.1642,0.09313 -0.352907,0.09313 -0.257328,0 -0.399471,-0.139692 -0.142143,-0.139693 -0.142143,-0.382316 0,-0.169101 0.07107,-0.313695 0.07107,-0.147045 0.19606,-0.232821 0.127438,-0.08577 0.286737,-0.08577 0.142143,0 0.227919,0.08577 0.08578,0.08333 0.08578,0.22792 0,0.169101 -0.122537,0.291638 -0.120087,0.120086 -0.409274,0.191158 0.06127,0.112734 0.23282,0.112734 0.110283,0 0.249976,-0.07597 0.142143,-0.07842 0.245074,-0.203412 0.02941,-0.03431 0.06617,-0.03431 z m -0.617587,-0.355358 q -0.09068,0 -0.154397,0.105382 -0.06127,0.105382 -0.06127,0.254877 v 0.0049 q 0.144594,-0.03431 0.227919,-0.102931 0.08333,-0.06862 0.08333,-0.159299 0,-0.04656 -0.02696,-0.07352 -0.02451,-0.02941 -0.06862,-0.02941 z"
           style="font-style:normal;font-variant:normal;font-weight:normal;font-stretch:normal;font-size:2.45074201px;font-family:Pacifico;-inkscape-font-specification:'Pacifico, Normal';font-variant-ligatures:normal;font-variant-caps:normal;font-variant-numeric:normal;font-feature-settings:normal;text-align:end;writing-mode:lr-tb;text-anchor:end;stroke-width:0.28252149;fill:#fafafa;fill-opacity:1"
           id="path872" />
        <path
           d="m 56.123784,96.540657 q -0.127439,0 -0.19606,-0.05882 -0.06617,-0.05882 -0.06617,-0.132341 0,-0.06372 0.04656,-0.110283 0.04657,-0.04656 0.137242,-0.04656 0.03186,0 0.07352,0.0074 0.04411,0.0049 0.06617,0.0074 -0.0024,-0.06372 -0.02941,-0.120086 -0.02451,-0.05637 -0.06372,-0.107833 -0.03921,-0.05392 -0.07352,-0.09313 -0.07597,0.144594 -0.151946,0.240173 -0.07352,0.09558 -0.161749,0.181355 -0.04411,0.04411 -0.09313,0.04411 -0.03921,0 -0.06372,-0.02696 -0.02451,-0.02941 -0.02451,-0.07107 0,-0.04902 0.03431,-0.09068 l 0.03186,-0.03921 q 0.134791,-0.16665 0.203412,-0.274483 0.04411,-0.07107 0.08823,-0.169101 0.04656,-0.09803 0.120087,-0.267131 0.04656,-0.107833 0.193608,-0.107833 0.06862,0 0.09558,0.01225 0.02696,0.01225 0.02696,0.03921 0,0.0147 -0.0098,0.04656 -0.0098,0.03186 -0.02696,0.06372 -0.04411,0.08823 -0.04411,0.149496 0,0.03676 0.02451,0.08087 0.02696,0.04411 0.08088,0.110283 0.07842,0.102932 0.117635,0.176454 0.04166,0.07107 0.04166,0.156847 0,0.102932 -0.04902,0.19606 -0.04656,0.09068 -0.13234,0.147044 -0.08578,0.05637 -0.196059,0.05637 z"
           style="font-style:normal;font-variant:normal;font-weight:normal;font-stretch:normal;font-size:2.45074201px;font-family:Pacifico;-inkscape-font-specification:'Pacifico, Normal';font-variant-ligatures:normal;font-variant-caps:normal;font-variant-numeric:normal;font-feature-settings:normal;text-align:end;writing-mode:lr-tb;text-anchor:end;stroke-width:0.28252149;fill:#fafafa;fill-opacity:1"
           id="path874" />
      </g>
    </g>
  </g>
</svg>
